<?xml version="1.0" encoding="utf-8"?>
<!-- Generator: Adobe Illustrator 27.3.1, SVG Export Plug-In . SVG Version: 6.00 Build 0)  -->
<svg version="1.1" id="Layer_1" xmlns="http://www.w3.org/2000/svg" xmlns:xlink="http://www.w3.org/1999/xlink" x="0px" y="0px"
	 viewBox="0 0 16 16" style="enable-background:new 0 0 16 16;" xml:space="preserve">
<path d="M15.16,7.3C15.14,7.22,15.08,7.16,15,7.14l-0.1-0.02V5.78l0.16-0.13c0.06-0.05,0.09-0.14,0.07-0.22s-0.09-0.14-0.17-0.15
	l-0.88-0.16l0-1.13l0-0.02l0.16-0.14c0.06-0.05,0.09-0.14,0.07-0.22c-0.02-0.08-0.09-0.14-0.17-0.15L7,2.16
	c-0.06-0.01-0.11,0-0.16,0.03L1.31,6.05C1.21,6.11,0.83,6.37,0.83,7.1c0.01,0.79,0.48,1.15,0.5,1.17c0,0,0.01,0,0.01,0.01
	c0,0,0.01,0.01,0.01,0.01c0.01,0,0.01,0.01,0.02,0.01c0,0,0.01,0,0.02,0.01c0.01,0,0.01,0,0.02,0.01c0,0,0.01,0,0.01,0l0.33,0.07
	C1.69,8.52,1.65,8.7,1.66,8.93c0,0.39,0.12,0.68,0.24,0.87L1.64,9.97c-0.11,0.06-0.49,0.32-0.48,1.05c0.01,0.79,0.48,1.15,0.5,1.17
	c0.02,0.01,0.05,0.03,0.08,0.04l7.49,1.57c0,0,0,0,0,0l0.27,0.06c0.01,0,0.03,0,0.04,0c0.05,0,0.1-0.02,0.14-0.05l4.92-4.2
	c0.06-0.05,0.09-0.14,0.07-0.21c-0.02-0.08-0.08-0.14-0.16-0.15l-0.09-0.02V8.09l0.67-0.58C15.15,7.46,15.18,7.38,15.16,7.3
	L15.16,7.3z M9.18,8.07c0.05,0,0.1-0.02,0.14-0.05l4.34-3.71v1.34L9.14,9.49V8.07C9.16,8.07,9.17,8.07,9.18,8.07L9.18,8.07z
	 M1.64,6.49l7.08,1.49v1.43L1.64,7.92L1.64,6.49z M1.97,11.84v-1.43l7.08,1.49v1.43L1.97,11.84z M2.47,9.75V8.53L8.9,9.88
	c0,0,0,0,0,0l0.27,0.06c0.01,0,0.03,0,0.04,0c0.05,0,0.1-0.02,0.14-0.05l0.12-0.1L9.54,9.8v1.43L2.47,9.75z M14,9.57l-4.52,3.85
	l0-1.43c0.01,0,0.03,0,0.04,0c0.05,0,0.1-0.02,0.14-0.05l0.24-0.2l0.11,0.02c0.01,0,0.03,0,0.04,0c0.05,0,0.1-0.02,0.14-0.05
	L14,8.44L14,9.57z M14.49,7.47l-4.52,3.85l0-1.43c0.01,0,0.03,0,0.04,0c0.05,0,0.1-0.02,0.14-0.05l4.35-3.71L14.49,7.47z"/>
</svg>
